<svg id="clipBoard" xmlns="http://www.w3.org/2000/svg" width="391.18" height="512.18" viewBox="0 0 391.18 512.18">
  <rect id="board" x="0.18" y="0.18" width="391" height="512" rx="49.49" fill="#359dfb"/>
  <path id="page" d="M30.18,39.46h331a0,0,0,0,1,0,0v277.9A155.53,155.53,0,0,1,205.65,472.89H30.18a0,0,0,0,1,0,0V39.46a0,0,0,0,1,0,0Z" fill="#fff"/>
  <path id="clipBoardOutline" d="M353.5,0H37.5A37.54,37.54,0,0,0,0,37.5v437A37.54,37.54,0,0,0,37.5,512h316A37.54,37.54,0,0,0,391,474.5V37.5A37.54,37.54,0,0,0,353.5,0ZM113,15H278V30H113ZM276.71,45A22.54,22.54,0,0,1,255.5,60h-120a22.54,22.54,0,0,1-21.21-15ZM376,474.5A22.52,22.52,0,0,1,353.5,497H37.5A22.52,22.52,0,0,1,15,474.5V37.5A22.52,22.52,0,0,1,37.5,15H98V30H37.5A7.5,7.5,0,0,0,30,37.5v437a7.5,7.5,0,0,0,7.5,7.5h196a7.5,7.5,0,0,0,0-15H45V45H98.76A37.55,37.55,0,0,0,135.5,75h120a37.55,37.55,0,0,0,36.74-30H346V377H263.5a7.5,7.5,0,0,0-7.5,7.5v90a7.5,7.5,0,0,0,12.8,5.3l90-90a7.48,7.48,0,0,0,2.21-5.31V37.5a7.5,7.5,0,0,0-7.5-7.5H293V15h60.5A22.52,22.52,0,0,1,376,37.5ZM335.39,392,271,456.39V392Z"/>
</svg>
