<svg id="Layer_1" data-name="Layer 1" xmlns="http://www.w3.org/2000/svg" width="960" height="166.42" viewBox="0 0 960 166.42">
  <path d="M376.24,165.44a17.67,17.67,0,0,1-5.55,1,28.58,28.58,0,0,1-4.41-.33,32.28,32.28,0,0,0-4.73-.32q-21.54,0-41.93.32t-41.93.33H253.22a5.39,5.39,0,0,0-2.29-.65l-7.5-5.88a78.52,78.52,0,0,0-19.58-9.62A69.44,69.44,0,0,0,201,146.19h-60.7l-2,.65H127.59c-2.61,0-5.17.06-7.67.16s-4.41.17-5.71.17H99.52q-11.08,0-23-.33a174.39,174.39,0,0,1-22.35-2A10.5,10.5,0,0,1,49,143.41c-1.75-1-2.61-2.12-2.61-3.42,0-1.74,1.19-4.19,3.59-7.34s5-6.31,7.83-9.47,6.63-7,11.42-11.58L65.91,107h-16l-6.53-2.61H17c-.44,0-2.12-.76-5.06-2.28a56.72,56.72,0,0,1-6.69-3.92A21.92,21.92,0,0,1,2,96.1c-1.31-1-2-1.58-2-1.8V80.6a3.9,3.9,0,0,1,1.79-3.26,29.16,29.16,0,0,1,4.08-2.45A24.59,24.59,0,0,1,10.6,73.1a36.13,36.13,0,0,0,4.08-1.31,7.32,7.32,0,0,0,2.94-2.45c.65-1,1.85-1.47,3.59-1.47a4.59,4.59,0,0,1,2.61.66,4,4,0,0,0,2.28.65h1.31q1.64,0,8-.33T49,68.36q7.17-.15,13.54-.49t8-.32h9.79c2.61,0,5.6,0,9-.17s6.9-.16,10.6-.16h18q45.68,0,89.9.82t89.89.16l3.59,2.61h2a52,52,0,0,1,5.39.33q3.09.33,6.36.49c2.17.11,3.91.16,5.22.16h12.73A12.72,12.72,0,0,1,335,70.48q1.79-1,3.75-2.28c1.3-.87,2.5-1.68,3.59-2.45A18.9,18.9,0,0,0,344.58,64c.22,0,.65-.27,1.31-.82s1.41-1.14,2.28-1.79,1.69-1.31,2.45-2,1.25-1,1.47-1q6.2-3.91,12.07-7.18t12.4-6.85a45.89,45.89,0,0,0,6-4.08,15.19,15.19,0,0,1,7-3.1q6.86-2,14.36-3.59a119.4,119.4,0,0,1,15-2.28c.65,0,1.85,0,3.59-.17s3.59-.16,5.55-.16q3.25,0,5.87-.16c1.74-.11,2.83-.17,3.26-.17a34,34,0,0,0,4.57-.65c2.39-.43,4-.76,4.9-1q7.5-2,15.5-4.4a75.59,75.59,0,0,1,15.5-3.1,12.59,12.59,0,0,1,3.59-.49q2.93-.16,6.2-.16h10.76a85.87,85.87,0,0,0,20.89-4.57,85.62,85.62,0,0,1,21.21-4.57q21.54-2,45-3.43T631.08,6.2c1.74-.65,3.15-1.25,4.25-1.79a29.5,29.5,0,0,0,3.1-1.8A15.28,15.28,0,0,1,641.69,1a22.11,22.11,0,0,1,5.06-1c.21,0,1,.06,2.44.16s3,.22,4.73.33L659,.82c1.63.11,3,.16,4.08.16a20.72,20.72,0,0,1,4.41,1.14,34.53,34.53,0,0,0,5,1.47c.66,0,1.91.06,3.76.16s3.75.17,5.71.17q3.25,0,6,.16c1.85.11,3.1.16,3.76.16l2.93,1.31h37.53a24.45,24.45,0,0,0,9.14,3.59,84.71,84.71,0,0,0,10.93,1.3,98.88,98.88,0,0,0,11.42,0c3.8-.21,7.23-.32,10.27-.32h.66q2.61,0,9,.65t13.54,1.3q7.19.66,13.55,1.31t8.64,1q10.44,1,19.74,2.44a125.38,125.38,0,0,0,19.75,1.47l3.91,1.31q13.71,2.28,22.84,3.91t18.93,3.1q9.79,1.47,15.66,2.45,3.59.33,10.28.82a131.82,131.82,0,0,1,13.22,1.63,41.86,41.86,0,0,1,11.42,3.59Q960,37.53,960,41.77a8.45,8.45,0,0,1-1.47,4.08,4.31,4.31,0,0,1-3.75,2.44q-19.9.66-38.67.82t-38,.82q-12.4,2.28-24,4.57t-23,4.56a19.22,19.22,0,0,1-4.24,1.63q-32.64,5.57-65.1,9t-66.08,6L689.49,77H660.78A18.25,18.25,0,0,0,656,75.7a45.15,45.15,0,0,1-5-1c-2,0-5.28-.17-10-.49s-9.68-.66-15-1-10.33-.66-15-1-8-.49-10-.49q-10.44-1.31-21.86-3.26a132.68,132.68,0,0,0-22.52-2h-3.26c-1.31,0-3,.11-5.22.32l-6.69.66q-3.42.33-6.2.49c-1.85.11-3,.16-3.43.16a38.08,38.08,0,0,0-14.52,4.4,40.87,40.87,0,0,0-10.28,8.16A57.72,57.72,0,0,0,499.74,91l-6,10.77a123.36,123.36,0,0,1-9.63,14.52q-5.38,7-10.61,14.2a45.67,45.67,0,0,0-3.91,5.87A21.35,21.35,0,0,1,465,142a17,17,0,0,1-3.1,1.46c-1.42.55-2.88,1.09-4.4,1.64s-2.84,1-3.92,1.46-1.52.77-1.31,1L436,157.61c-.22,0-1.14.16-2.77.49l-5.72,1.14a27.59,27.59,0,0,1-4.24.65q-2.28.33-8.15.82c-3.92.32-8.11.71-12.57,1.14s-8.65.87-12.56,1.3-6.64.66-8.16.66Q379.17,164.47,376.24,165.44Zm-172.3-58.08-.65,1-17.95,3.26a6.83,6.83,0,0,1-2.28,1.3c-1.09.44-1.85.77-2.29,1l-2,1c-.44,0-.65.33-.65,1h2.6c.22,0,1.64-.16,4.25-.49s5.65-.76,9.13-1.3,7.07-1.09,10.77-1.64,6.64-1,8.81-1.46a31.76,31.76,0,0,1,3.59-.82l5.22-1q2.61-.48,5.06-1a31.59,31.59,0,0,0,3.43-.81Z" fill="#359dfb"/>
</svg>
