<svg id="Glass" xmlns="http://www.w3.org/2000/svg" width="512" height="512" viewBox="0 0 512 512">
  <circle id="Middle" cx="325.46" cy="188.46" r="171.46" fill="none" stroke="#888" stroke-miterlimit="10" stroke-width="30"/>
  <circle id="Inner" cx="325.46" cy="188.46" r="152.54" fill="none" stroke="#000" stroke-miterlimit="10" stroke-width="14"/>
  <g>
    <path id="Outer_Handle" data-name="Outer&amp;Handle" d="M457.16,54.84c73.12,73.12,73.12,192.1,0,265.23-61.43,61.43-155.23,71.24-227,29.45a22.49,22.49,0,0,1-32,17.37l-12.43,12.44a22.5,22.5,0,0,1-29.17,30.38S95,490.41,94.17,491.33l0,0a52.51,52.51,0,1,1-78.86-69,53.92,53.92,0,0,1,5.24-4.59l81.7-62.34a22.49,22.49,0,0,1,30.37-29.17l12.44-12.43a22.49,22.49,0,0,1,17.37-32c-41.79-71.78-32-165.58,29.46-227C265.06-18.28,384-18.28,457.16,54.84ZM446.55,309.46c67.27-67.28,67.27-176.74,0-244s-176.73-67.27-244,0-67.27,176.73,0,244S379.28,376.73,446.55,309.46Zm-233.4,42.43a7.5,7.5,0,0,0,0-10.61l-42.43-42.43a7.5,7.5,0,1,0-10.61,10.61l42.43,42.43A7.5,7.5,0,0,0,213.15,351.89ZM176,367.81l10.61-10.61L154.8,325.37,144.19,336Zm-5.3,26.52a7.52,7.52,0,0,0,0-10.61l-42.44-42.44a7.5,7.5,0,1,0-10.61,10.61l42.44,42.44A7.52,7.52,0,0,0,170.72,394.33Zm-25.86,6L111.7,367.14l-82,62.56A39.49,39.49,0,0,0,26,433,37.51,37.51,0,0,0,79,486a37,37,0,0,0,3.29-3.78Z"/>
    <path id="Handle1" d="M213.15,341.28a7.5,7.5,0,0,1-10.61,10.61l-42.43-42.43a7.5,7.5,0,1,1,10.61-10.61Z" fill="#888"/>
    <rect id="Handle_Mid" data-name="Handle Mid" x="157.91" y="324.08" width="15" height="45.01" transform="translate(-196.63 218.48) rotate(-45)" fill="#7a3b00"/>
    <path id="Handle_2" data-name="Handle 2" d="M170.72,383.72a7.5,7.5,0,0,1-10.61,10.61l-42.44-42.44a7.5,7.5,0,1,1,10.61-10.61Z" fill="#888"/>
    <path id="Handle_Lower" data-name="Handle Lower" d="M111.7,367.14l33.16,33.16-62.56,82A37,37,0,0,1,79,486,37.51,37.51,0,0,1,26,433a39.49,39.49,0,0,1,3.77-3.29Z" fill="#7a3b00"/>
  </g>
</svg>
