<svg id="Page_1" data-name="Page 1" xmlns="http://www.w3.org/2000/svg" width="178.77" height="287.8" viewBox="0 0 178.77 287.8">
  <g id="Layer_1" data-name="Layer 1">
    <g>
      <path d="M89.12,0C52,46.18,11.4,137.09,0,287.8c28.81-38.77,61.57-80,104-104.61,11-6.39,17.15-8.79,26.85.78,17,16.81,38.78,60.26,47.9,80.56C167.17,149.61,128.83,64,89.12,0Zm30.66,164.63c-26.5,0-87.73,59.52-108.85,86C22.81,147.7,47.66,72.66,86.92,16c24.46,45.46,55.26,108.52,71.16,186.26C151.18,193.6,136,164.63,119.78,164.63Z" fill-rule="evenodd"/>
      <polygon points="89.16 37.36 99.33 116.65 120.99 123.61 101.4 132.73 104.19 155.56 89.91 134.26 75.94 155.56 78.39 132.73 58.67 123.61 80.21 116.65 89.16 37.36 89.16 37.36" fill-rule="evenodd"/>
    </g>
  </g>
</svg>
