<svg id="Capa_1" data-name="Capa 1" xmlns="http://www.w3.org/2000/svg" width="378.4" height="378.41" viewBox="0 0 378.4 378.41">
  <path d="M370.36,180c-13.71-1.52-111.46,12.21-154.18-77.49-22.46-47.18-16.7-89.95-17.92-95.31A9.27,9.27,0,0,0,180,8.9V28.36c-3.39,66.91-33.84,123.87-97.78,143.92-36.93,11.58-69,6.58-75,7.89-9.6,2.18-9.67,16,.1,18.13,8.37,1.77,71.33-8.43,120.22,32.17a7.5,7.5,0,1,0,9.59-11.54C120.34,205,100.23,195,77.23,189.26,137.8,174,175,130.76,189.21,70.2c14.11,60.19,51,103.81,112.21,119C240.8,204.36,203.11,247.56,189.12,308c-5.21-22.13-13.89-43.32-27-61.83a7.5,7.5,0,0,0-12.26,8.65,144.39,144.39,0,0,1,12.32,21.13c21.19,44.51,17.44,89.8,17.75,94.17.79,11.16,19,11.72,18.43-2.08-1-24.87.9-109.12,69-149.11,45.93-26.95,97-19.08,103.83-20.61C381.47,196,380.36,181.15,370.36,180Z" fill="#ffffd7"/>
</svg>
