<svg id="Page_1" data-name="Page 1" xmlns="http://www.w3.org/2000/svg" width="201.42" height="345" viewBox="0 0 201.42 345">
  <g id="Layer_1" data-name="Layer 1">
    <g>
      <polygon points="28.48 301.7 49.77 301.7 48.59 308.38 41.36 308.38 34.94 345 28.11 345 34.54 308.38 27.31 308.38 28.48 301.7 28.48 301.7" fill="#359dfb" fill-rule="evenodd"/>
      <path d="M86.22,325.76,91,345H84.13l-4.06-16.32-1.46.69L75.87,345H69.05l7.59-43.3H90c4.78,0,5.48,2.51,4.75,6.68l-2.56,14.56-5.94,2.82ZM86,319.19l1.9-10.81H82.29l-2.4,13.71,6.11-2.9Z" fill="#359dfb" fill-rule="evenodd"/>
      <path d="M144.2,325.76,149,345h-6.88l-4.06-16.32-1.46.69L133.85,345H127l7.6-43.3H148c4.78,0,5.48,2.51,4.75,6.68l-2.56,14.56-5.94,2.82Zm-.22-6.57,1.9-10.81h-5.61l-2.41,13.71,6.12-2.9Z" fill="#359dfb" fill-rule="evenodd"/>
      <polygon points="189.82 319.89 195.61 345 188.39 345 184.9 326.84 181.12 332.58 178.94 345 172.12 345 179.72 301.7 186.54 301.7 183.68 317.99 193.9 301.7 201.43 301.7 189.82 319.89 189.82 319.89" fill="#359dfb" fill-rule="evenodd"/>
      <path d="M12.69,301.7H20c4.78,0,5.5,2.51,4.77,6.68l-.05.3-7.45,3.53.68-3.83H12.32l-2,11.38,13.55-6.43-4.39,25c-.85,4.86-2.91,6.67-7.2,6.67H5c-4.79,0-5.48-2.51-4.75-6.67l.54-3.11,7.44-3.53-1.16,6.64h5.6l2.49-14.19L1.61,330.57l3.87-22.19c.85-4.87,2.92-6.68,7.21-6.68Z" fill="#359dfb" fill-rule="evenodd"/>
      <polygon points="110.68 301.7 131.96 301.7 130.79 308.38 123.56 308.38 117.13 345 110.31 345 116.74 308.38 109.51 308.38 110.68 301.7 110.68 301.7" fill="#359dfb" fill-rule="evenodd"/>
      <path d="M55.61,322l6.11-2.9,1.87-10.68H58L55.61,322Zm14.81-13.58L64,345H57.17l3.27-18.66-6.11,2.9L51.56,345H44.74l6.43-36.62c.85-4.87,2.92-6.68,7.21-6.68h7.29c4.78,0,5.48,2.51,4.75,6.68Z" fill="#359dfb" fill-rule="evenodd"/>
      <path d="M162.21,320.21l11.26-5.34-1.28,7.27-11.26,5.34L159,338.33h10.32L168.18,345H151l6.42-36.62c.85-4.87,2.92-6.68,7.21-6.68h11.11l-1.18,6.68H164.28l-2.07,11.83Z" fill="#359dfb" fill-rule="evenodd"/>
      <path d="M100.77,0C63.65,46.18,23.05,137.09,11.65,287.8c28.81-38.77,61.57-80,104-104.61,11-6.39,17.15-8.79,26.85.78,17,16.81,38.78,60.26,47.9,80.56C178.82,149.61,140.48,64,100.77,0Zm30.66,164.63c-26.5,0-87.73,59.52-108.85,86C34.46,147.7,59.31,72.66,98.57,16,123,61.42,153.84,124.48,169.73,202.22,162.83,193.6,147.62,164.63,131.43,164.63Z" fill="#359dfb" fill-rule="evenodd"/>
      <polygon points="100.81 37.36 110.98 116.65 132.64 123.61 113.05 132.73 115.84 155.56 101.56 134.26 87.59 155.56 90.04 132.73 70.32 123.61 91.86 116.65 100.81 37.36 100.81 37.36" fill="#359dfb" fill-rule="evenodd"/>
    </g>
  </g>
</svg>
